<?xml version="1.0" standalone="no"?>
<!DOCTYPE svg PUBLIC "-//W3C//DTD SVG 20010904//EN"
 "http://www.w3.org/TR/2001/REC-SVG-20010904/DTD/svg10.dtd">
<svg version="1.0" xmlns="http://www.w3.org/2000/svg"
 width="1920.000000pt" height="1920.000000pt" viewBox="0 0 1920.000000 1920.000000"
 preserveAspectRatio="xMidYMid meet">

<g transform="translate(0.000000,1920.000000) scale(0.100000,-0.100000)"
fill="#000000" stroke="none">
<path d="M13988 16015 c-9 -10 -373 -134 -472 -162 -49 -13 -122 -37 -163 -54
-40 -16 -87 -29 -102 -29 -16 0 -51 -9 -76 -20 -65 -28 -302 -107 -345 -115
-19 -4 -45 -13 -56 -20 -27 -17 -211 -79 -284 -95 -30 -7 -62 -18 -70 -26 -8
-7 -19 -13 -25 -13 -17 1 -380 -118 -400 -130 -5 -3 -12 -6 -15 -6 -55 -7
-100 -18 -100 -24 0 -8 -81 -31 -110 -31 -11 0 -20 4 -20 9 0 5 -9 7 -20 4
-17 -5 -18 -7 -5 -27 33 -50 307 -78 785 -79 l335 -1 135 46 c148 51 489 162
700 228 125 40 140 42 212 37 43 -4 90 -2 103 3 l26 10 -7 227 c-7 220 -13
281 -26 268z"/>
<path d="M13590 15930 c0 -5 4 -10 9 -10 6 0 13 5 16 10 3 6 -1 10 -9 10 -9 0
-16 -4 -16 -10z"/>
<path d="M15682 15903 c-8 -14 -26 -24 -50 -28 -20 -4 -53 -13 -72 -20 -19 -8
-82 -28 -140 -45 -58 -17 -114 -36 -124 -42 -11 -5 -29 -11 -40 -13 -12 -1
-79 -23 -151 -48 -163 -57 -223 -77 -255 -84 -14 -2 -44 -13 -67 -24 -24 -10
-91 -32 -150 -49 -60 -16 -173 -52 -253 -80 -80 -28 -176 -60 -215 -72 -38
-11 -78 -25 -89 -30 -10 -5 -50 -19 -90 -29 -76 -21 -308 -95 -341 -109 -11
-4 -42 -16 -70 -25 -48 -15 -79 -24 -210 -61 -46 -12 -70 -27 -105 -61 -25
-25 -40 -43 -33 -39 7 4 17 -3 24 -16 7 -13 17 -27 23 -31 7 -6 4 -7 -6 -3
-13 4 -18 0 -18 -14 0 -21 -13 -33 -25 -22 -4 4 -17 7 -28 7 -15 0 -23 7 -25
23 -2 15 2 22 13 22 26 0 11 25 -16 28 -54 6 -105 8 -116 4 -7 -2 -9 -16 -6
-38 5 -31 4 -34 -21 -34 -18 0 -26 5 -26 18 0 14 -2 15 -10 2 -9 -13 -11 -13
-20 0 -8 12 -10 12 -10 -5 -1 -15 -4 -12 -14 11 -12 27 -19 31 -48 30 -32 -2
-57 7 -88 31 -27 21 -239 37 -495 38 -192 1 -270 5 -335 18 -47 9 -88 17 -92
17 -5 0 -8 4 -8 8 0 9 158 8 400 -4 95 -4 218 -2 315 4 88 7 234 17 325 23 91
6 194 17 230 25 l65 14 -55 -5 c-30 -3 -109 -11 -175 -17 -67 -6 -300 -12
-530 -12 -433 0 -586 10 -877 55 -77 12 -145 18 -155 14 -10 -5 -22 -7 -26 -6
-5 1 -34 -7 -65 -18 -31 -10 -95 -31 -142 -46 -47 -15 -94 -30 -105 -34 -64
-24 -192 -65 -273 -86 -51 -14 -119 -36 -150 -49 -31 -13 -97 -36 -147 -51
-49 -15 -112 -35 -140 -45 -27 -9 -144 -49 -260 -88 -115 -38 -235 -80 -265
-91 -30 -12 -64 -23 -75 -26 -63 -14 -97 -24 -103 -30 -35 -35 370 -75 765
-75 l202 0 273 90 c150 49 320 104 378 123 l105 35 6 -27 c13 -51 9 -71 -16
-93 -25 -22 -34 -25 -88 -33 -15 -3 -41 -11 -57 -20 -16 -8 -37 -15 -47 -15
-24 0 -130 -34 -168 -54 -19 -9 -74 -18 -143 -22 -62 -4 -115 -11 -119 -17 -3
-5 27 -6 80 -2 106 9 169 0 165 -23 -3 -17 -61 -33 -172 -47 -35 -5 -45 -9
-35 -16 10 -6 10 -9 2 -9 -7 0 -13 -8 -13 -18 0 -10 -13 -23 -31 -31 -17 -7
-34 -23 -39 -35 -5 -11 -9 -16 -9 -10 -1 7 -10 14 -21 17 -12 3 -20 14 -20 26
0 12 -4 22 -10 22 -5 1 -16 2 -22 3 -7 1 -12 8 -10 16 2 8 1 12 -3 8 -4 -3
-22 0 -40 8 -26 10 -84 14 -232 14 -312 0 -525 20 -608 56 l-40 18 30 7 c17 3
26 8 20 9 -5 1 -19 3 -30 5 -11 2 -68 9 -128 15 -121 12 -189 24 -230 39 -27
10 -27 12 -13 39 19 36 60 54 321 142 192 65 200 69 203 95 6 44 -7 92 -26
100 -9 4 -57 11 -106 15 -64 6 -92 13 -98 24 -7 12 -19 14 -56 9 -26 -3 -50
-11 -54 -17 -5 -7 -8 -7 -8 2 0 11 -3 10 -14 -1 -8 -8 -39 -18 -68 -22 -67
-10 -60 -9 -77 -19 -17 -11 -62 -13 -77 -3 -6 3 -22 0 -36 -7 -16 -8 -30 -10
-35 -5 -5 5 -18 1 -31 -12 -13 -11 -39 -22 -60 -25 -62 -7 -119 -27 -133 -48
-4 -5 -21 -7 -38 -4 -17 2 -31 1 -31 -4 0 -4 -13 -6 -30 -4 -22 2 -31 -1 -36
-16 -3 -11 -12 -17 -20 -14 -7 3 -17 -1 -21 -8 -5 -7 -39 -21 -78 -31 -38 -9
-75 -21 -81 -26 -15 -12 -51 -20 -86 -20 -16 0 -28 -5 -28 -10 0 -5 -9 -9 -20
-9 -31 0 -144 -41 -156 -56 -6 -8 -23 -14 -37 -14 -14 0 -28 -4 -31 -8 -2 -4
-19 -9 -37 -10 -18 -1 -38 -7 -44 -12 -7 -5 -14 -8 -17 -5 -3 3 -20 -1 -39 -9
-19 -7 -40 -11 -46 -9 -7 3 -13 0 -13 -6 0 -6 -12 -11 -26 -11 -14 0 -53 -14
-88 -30 -71 -35 -99 -43 -139 -42 -18 1 -25 -3 -21 -10 5 -7 2 -9 -8 -5 -24 9
-98 -14 -143 -44 -39 -26 -60 -31 -178 -43 -16 -2 -32 -9 -37 -16 -4 -7 -12
-10 -18 -6 -6 3 -13 2 -17 -4 -3 -5 -23 -17 -43 -26 -20 -8 -44 -20 -52 -25
-8 -5 -24 -13 -35 -18 -11 -5 -36 -29 -55 -53 -19 -24 -73 -82 -120 -129 -117
-118 -155 -167 -155 -198 -1 -28 -31 -81 -47 -81 -6 0 -5 -6 2 -15 7 -9 8 -15
2 -15 -15 0 -23 -29 -13 -49 6 -10 28 -23 50 -30 37 -11 41 -15 41 -44 0 -51
-27 -145 -65 -224 -35 -75 -34 -74 -113 -87 -34 -6 -206 15 -297 35 -285 64
-666 231 -982 430 -52 33 -97 58 -100 56 -5 -6 156 -121 199 -143 18 -9 69
-42 113 -74 121 -87 391 -230 434 -230 16 0 33 -4 36 -10 3 -5 15 -10 26 -10
10 0 19 -4 19 -10 0 -5 8 -10 18 -10 10 0 40 -20 68 -45 27 -24 56 -44 65 -45
9 0 27 -8 40 -19 37 -28 79 -47 137 -61 28 -6 52 -16 52 -21 0 -5 -5 -9 -10
-9 -6 0 -9 -3 -8 -7 1 -5 -4 -25 -11 -46 -7 -21 -10 -41 -7 -44 3 -4 0 -13 -6
-21 -7 -8 -14 -26 -16 -41 -2 -14 -10 -36 -18 -48 -8 -13 -12 -23 -8 -23 4 0
2 -6 -3 -12 -11 -14 -27 -68 -25 -80 1 -5 -3 -8 -9 -8 -6 0 -8 -8 -4 -20 5
-15 2 -18 -14 -15 -27 5 -39 -36 -57 -187 -3 -27 -10 -45 -15 -42 -5 3 -6 -2
-3 -11 7 -17 -14 -48 -27 -40 -4 3 -15 -8 -24 -25 -8 -16 -21 -30 -27 -30 -6
0 -8 -3 -5 -6 3 -4 1 -16 -6 -28 -6 -11 -12 -37 -13 -56 -1 -19 -4 -42 -5 -50
-5 -18 -31 -40 -41 -34 -4 3 -5 -1 -2 -9 3 -8 -4 -37 -15 -66 -13 -34 -15 -51
-8 -51 7 0 5 -5 -5 -10 -9 -6 -19 -28 -23 -50 -4 -22 -11 -40 -16 -40 -5 0 -9
-9 -9 -19 0 -11 -9 -23 -20 -26 -11 -4 -18 -11 -15 -16 4 -5 1 -9 -4 -9 -6 0
-11 -7 -11 -15 0 -8 -4 -23 -9 -33 -5 -9 -18 -39 -30 -67 -12 -27 -28 -62 -36
-77 -7 -15 -11 -36 -8 -47 3 -14 1 -21 -8 -21 -11 0 -11 -2 1 -10 11 -7 11
-10 2 -10 -7 0 -12 -8 -11 -17 3 -37 -1 -53 -16 -53 -8 0 -15 9 -15 20 0 11
-4 20 -8 20 -8 0 -11 -18 -13 -82 -1 -21 -6 -38 -11 -38 -15 0 -33 -23 -35
-45 -9 -90 -31 -132 -66 -126 -5 1 -6 -3 -2 -9 11 -17 15 -52 7 -64 -3 -6 -7
-18 -9 -26 -1 -8 -8 -19 -15 -25 -7 -5 -15 -23 -16 -40 -4 -30 -21 -49 -59
-65 -13 -5 -23 -17 -23 -25 0 -9 -5 -13 -10 -10 -6 3 -10 2 -10 -4 0 -5 -3
-17 -7 -27 -3 -10 -2 -15 3 -12 5 3 15 0 22 -8 10 -11 10 -14 -2 -14 -11 0
-12 -7 -7 -27 8 -30 -7 -73 -26 -73 -7 0 -13 -12 -13 -27 0 -16 -11 -41 -25
-57 -23 -27 -30 -46 -26 -70 1 -5 -5 -3 -14 4 -13 11 -15 10 -9 -4 3 -9 10
-16 16 -16 5 0 6 -5 3 -10 -4 -6 -11 -7 -17 -4 -7 5 -8 2 -4 -5 5 -8 -4 -24
-25 -42 -18 -16 -27 -29 -20 -29 7 0 9 -5 6 -10 -4 -6 -12 -7 -18 -4 -8 5 -8
3 1 -7 14 -15 16 -33 2 -24 -5 3 -13 -12 -16 -35 -5 -28 -10 -37 -15 -28 -8
12 -13 4 -10 -14 0 -5 -6 -8 -14 -8 -8 0 -15 -5 -15 -11 0 -7 -8 -18 -17 -25
-17 -13 -17 -15 2 -30 12 -10 16 -18 9 -21 -7 -2 -10 -12 -7 -23 3 -12 -2 -20
-17 -25 -11 -4 -19 -12 -17 -18 2 -7 -3 -17 -10 -22 -14 -11 -21 -32 -22 -72
-1 -13 -16 -39 -35 -59 -31 -33 -34 -41 -30 -86 3 -44 1 -50 -21 -60 -14 -6
-25 -16 -25 -22 0 -7 -9 -12 -21 -13 -33 -3 -50 -23 -47 -57 2 -22 -1 -30 -10
-28 -9 2 -11 -4 -7 -18 4 -13 -2 -31 -20 -54 -26 -34 -33 -55 -37 -112 -1 -18
-6 -30 -10 -28 -8 5 -12 -17 -9 -43 1 -7 -20 -34 -46 -60 -38 -39 -48 -55 -48
-83 -1 -20 -6 -34 -12 -33 -6 1 -14 -4 -17 -12 -3 -8 0 -15 7 -16 7 -1 1 -5
-13 -9 -17 -5 -19 -8 -7 -9 9 -1 17 -6 17 -12 0 -6 -6 -9 -12 -6 -14 4 -69
-63 -62 -75 3 -5 0 -8 -5 -8 -6 0 -11 -7 -11 -15 0 -9 -7 -18 -15 -21 -11 -5
-12 -10 -5 -18 5 -7 8 -23 5 -36 -5 -25 -53 -100 -65 -100 -9 0 0 -59 11 -66
16 -10 -65 -112 -85 -106 -5 2 -6 -6 -3 -17 5 -21 -11 -25 -26 -6 -4 6 -5 -3
-1 -20 9 -40 9 -36 -4 -68 -7 -16 -16 -26 -21 -23 -5 3 -8 -2 -7 -11 1 -11 -8
-17 -26 -18 -16 -1 -28 3 -28 8 0 6 -3 7 -6 4 -4 -4 -1 -14 7 -23 17 -21 20
-44 5 -38 -8 3 -11 -7 -11 -31 1 -19 -3 -35 -8 -35 -5 0 -7 -6 -4 -12 2 -7 -6
-25 -19 -41 -13 -15 -21 -36 -19 -47 2 -13 -2 -20 -11 -20 -8 0 -14 -7 -14
-15 0 -8 -4 -15 -10 -15 -11 0 -50 -81 -50 -104 0 -8 -4 -18 -10 -21 -16 -10
-11 -40 9 -54 12 -9 17 -21 13 -34 -3 -14 -1 -18 6 -13 7 4 12 2 12 -3 0 -6
-6 -11 -12 -12 -33 -3 64 -19 114 -20 54 0 109 13 414 95 143 39 154 41 154
26 0 -13 -132 -140 -146 -140 -6 0 -29 -25 -49 -55 -21 -30 -42 -55 -46 -55
-4 0 -17 -16 -29 -35 -14 -23 -39 -43 -68 -56 -26 -11 -65 -29 -88 -40 -47
-22 -180 -61 -269 -79 -115 -24 -339 5 -544 69 -52 17 -98 28 -102 25 -5 -3
-19 2 -33 11 -13 9 -35 18 -48 19 -12 2 -40 11 -60 20 -21 9 -40 16 -43 16 -4
0 -59 23 -123 52 -167 74 -335 165 -530 288 -88 56 -66 29 46 -55 59 -44 124
-96 144 -116 21 -20 38 -34 38 -32 0 3 7 0 15 -7 8 -6 13 -17 12 -23 -1 -7 6
-11 16 -9 15 3 22 -8 18 -30 0 -4 6 -5 14 -2 8 4 15 2 15 -4 0 -6 3 -19 6 -29
6 -16 5 -16 -9 2 -9 11 -17 18 -17 15 -7 -31 -7 -39 1 -34 5 3 7 -5 5 -18 -2
-16 5 -28 23 -40 21 -14 22 -18 8 -18 -10 0 -15 -5 -12 -10 4 -6 12 -10 18 -9
31 4 46 -2 41 -15 -3 -9 6 -17 25 -24 17 -6 31 -9 31 -7 0 3 35 -13 77 -34 43
-22 96 -42 118 -45 21 -4 46 -13 55 -20 8 -8 29 -16 45 -19 17 -3 43 -10 58
-16 16 -6 43 -11 60 -11 18 -1 50 -9 72 -20 22 -11 47 -20 55 -20 29 -1 68
-50 40 -50 -6 0 -10 -5 -10 -11 0 -7 -8 -18 -17 -25 -10 -7 -18 -16 -18 -21
-2 -21 -19 -57 -51 -104 -19 -28 -34 -57 -34 -65 0 -8 -4 -14 -10 -14 -5 0 -7
-7 -4 -15 4 -8 1 -15 -6 -15 -6 0 -8 -5 -5 -11 4 -6 1 -10 -6 -8 -29 3 -40 -1
-33 -13 5 -8 0 -7 -11 2 -10 8 -16 10 -12 4 4 -7 0 -15 -8 -18 -9 -3 -20 -18
-26 -33 -7 -20 -12 -24 -18 -14 -7 11 -13 11 -32 0 -13 -7 -26 -14 -29 -14 -3
0 -15 -6 -28 -13 -12 -7 -26 -11 -30 -9 -4 3 -32 8 -62 11 -117 14 -272 71
-490 182 -244 123 -426 245 -568 379 -96 90 -96 90 -52 31 59 -78 178 -180
320 -275 63 -42 123 -84 132 -93 10 -10 23 -18 29 -18 5 0 8 -4 5 -9 -6 -8
-67 -23 -119 -27 -16 -1 -36 -9 -45 -17 -9 -9 -19 -16 -22 -16 -3 0 -21 -6
-40 -15 -26 -11 -37 -11 -42 -3 -6 9 -8 9 -8 0 0 -6 -13 -16 -30 -22 -16 -5
-30 -7 -30 -4 0 3 -7 0 -15 -7 -8 -6 -18 -9 -24 -6 -5 3 -11 1 -13 -5 -2 -7
-13 -13 -24 -13 -11 -1 -26 -6 -34 -11 -22 -14 -41 -18 -87 -19 -26 0 -43 -5
-43 -12 0 -7 -14 -15 -30 -19 -17 -4 -56 -20 -87 -35 -42 -22 -59 -26 -65 -17
-5 8 -8 9 -8 1 0 -7 -9 -14 -20 -17 -14 -4 -18 -10 -14 -24 6 -14 4 -16 -6 -6
-8 7 -19 9 -29 4 -9 -5 -19 -9 -23 -10 -5 -1 -8 -3 -8 -6 0 -3 0 -9 0 -15 0
-5 6 -7 14 -4 8 3 27 -1 43 -9 15 -8 53 -18 83 -21 82 -9 135 -16 235 -31 50
-8 119 -17 155 -21 36 -4 67 -9 70 -13 3 -3 14 -6 25 -6 15 0 20 -6 19 -27 -1
-16 3 -28 7 -28 5 0 9 -5 9 -11 0 -5 -5 -7 -10 -4 -15 9 -40 -21 -39 -47 1
-17 3 -18 6 -5 2 9 8 17 13 17 17 0 19 -17 5 -43 -7 -15 -10 -29 -5 -32 4 -3
11 7 14 20 4 15 11 23 17 19 8 -4 7 -9 -1 -14 -7 -4 -10 -15 -7 -23 7 -19 -16
-30 -32 -14 -8 8 -17 5 -33 -10 -13 -11 -29 -18 -35 -16 -7 3 -13 1 -13 -4 0
-18 -90 -19 -102 -1 -6 11 -10 10 -17 -1 -10 -16 -180 -13 -796 13 -502 21
-708 21 -746 -1 -57 -34 -78 -125 -78 -348 -1 -314 26 -442 99 -477 37 -17
154 -31 405 -48 83 -5 220 -14 305 -20 252 -16 1468 -86 1840 -105 58 -3 129
-8 158 -11 l52 -5 0 -40 c0 -54 27 -115 62 -140 36 -26 100 -34 408 -49 124
-6 333 -17 465 -24 277 -15 233 -22 570 88 201 65 237 74 285 70 71 -5 415
-24 451 -24 33 0 30 27 59 -465 30 -514 138 -2287 150 -2475 6 -91 16 -179 21
-197 12 -39 67 -89 106 -97 32 -7 530 -35 643 -37 63 -1 95 6 198 40 142 46
179 67 206 112 17 28 20 71 32 403 18 521 23 663 34 976 6 151 19 541 30 865
11 325 22 636 26 693 l6 104 72 -6 c39 -4 242 -15 451 -26 209 -11 718 -38
1130 -60 413 -22 847 -45 965 -51 118 -6 528 -27 910 -47 l695 -37 8 -60 c10
-69 43 -120 91 -140 29 -12 888 -65 1055 -65 54 0 108 14 337 90 l272 90 154
-6 c84 -3 164 -7 178 -9 14 -2 60 -4 102 -4 l77 -1 5 -32 c3 -18 21 -303 41
-633 54 -919 134 -2226 144 -2360 9 -133 22 -170 72 -205 35 -26 78 -30 499
-51 l255 -12 143 47 c156 52 194 78 211 144 5 20 12 120 15 222 14 414 67
1933 76 2190 5 151 17 466 25 699 8 234 16 425 18 427 1 1 103 34 227 74 312
100 1517 499 1910 632 179 60 363 128 410 151 106 52 119 74 133 226 9 103 -4
469 -18 517 -6 21 -7 21 -34 -4 -35 -30 -156 -82 -191 -82 -14 0 -36 -7 -48
-16 -37 -26 -155 -71 -232 -88 -40 -9 -92 -28 -115 -41 -23 -14 -62 -29 -86
-34 -93 -19 -165 -42 -192 -62 -16 -11 -58 -25 -95 -31 -37 -5 -78 -16 -92
-23 -45 -23 -186 -75 -203 -75 -9 0 -19 -5 -22 -10 -3 -6 -16 -10 -28 -10 -13
0 -32 -6 -43 -14 -11 -8 -42 -17 -69 -21 -52 -7 -57 -8 -139 -45 -27 -12 -67
-23 -88 -25 -22 -2 -45 -8 -51 -13 -14 -11 -74 -31 -114 -38 -15 -3 -61 -20
-101 -39 -40 -19 -89 -37 -110 -41 -20 -4 -54 -15 -76 -26 -41 -21 -51 -24
-140 -39 -32 -5 -68 -17 -80 -25 -23 -16 -95 -39 -111 -35 -5 1 -30 -6 -55
-17 -87 -38 -175 -71 -205 -77 -32 -7 -164 -48 -228 -71 -20 -8 -47 -14 -58
-14 -12 0 -34 -9 -50 -20 -15 -12 -52 -28 -81 -36 -106 -29 -133 -38 -143 -45
-10 -7 -69 -19 -95 -20 -30 0 -96 -23 -115 -39 -20 -17 -27 -20 -120 -45 -95
-26 -228 -74 -244 -89 -9 -7 -30 -17 -48 -21 -19 -4 -35 -14 -38 -26 -4 -10
-10 -19 -13 -19 -7 0 -28 -37 -50 -90 -8 -18 -11 -20 -11 -7 -1 9 -5 17 -9 17
-12 0 -37 56 -53 118 -10 41 -16 51 -28 46 -46 -19 -84 -18 -851 21 -157 8
-379 19 -495 24 -198 10 -313 16 -742 41 -98 6 -268 15 -378 21 -110 5 -281
14 -380 19 -469 25 -564 30 -760 40 -115 6 -284 15 -375 20 -91 5 -257 14
-370 20 -113 6 -284 15 -380 20 -96 6 -303 17 -460 25 -462 23 -492 25 -550
30 -30 3 -152 9 -270 15 -118 5 -291 14 -385 20 -152 9 -375 20 -670 35 -169
9 -466 25 -545 30 -41 2 -120 7 -175 10 -195 10 -302 15 -465 25 -91 5 -228
12 -305 15 -77 3 -201 10 -275 15 -74 5 -236 14 -360 20 -124 6 -297 15 -385
20 -160 10 -546 31 -915 50 -107 6 -355 19 -550 30 -195 11 -526 29 -735 40
-1247 67 -1322 75 -1299 134 7 18 18 18 203 13 212 -6 466 -19 876 -42 143 -8
352 -20 465 -25 113 -5 288 -14 390 -20 235 -13 516 -28 645 -35 55 -3 224
-12 375 -20 151 -8 327 -17 390 -20 63 -3 140 -8 170 -10 30 -3 107 -7 170
-10 63 -3 149 -8 190 -10 41 -3 210 -12 375 -20 165 -9 379 -20 475 -25 96 -5
391 -21 655 -34 264 -14 516 -28 560 -31 69 -4 308 -17 1220 -65 105 -6 269
-15 365 -20 259 -14 509 -28 950 -50 457 -23 728 -38 820 -45 36 -2 121 -7
190 -10 69 -3 204 -10 300 -15 276 -15 544 -29 680 -35 69 -4 152 -8 185 -10
169 -11 241 -15 360 -20 142 -6 419 -22 530 -30 39 -3 252 -14 475 -25 223
-12 556 -29 740 -39 276 -15 339 -16 360 -5 14 7 48 22 75 34 28 12 64 28 80
35 33 15 85 29 98 27 4 -1 10 4 13 12 3 8 11 13 18 10 7 -3 34 5 61 16 40 17
88 31 150 44 6 1 20 7 32 14 12 7 30 12 40 12 10 0 27 6 38 14 11 7 25 14 30
14 44 2 98 16 117 31 13 10 48 24 78 31 60 14 71 18 142 49 26 11 64 25 85 30
75 19 109 30 193 61 47 18 123 43 170 55 47 13 115 35 153 49 37 14 70 26 75
27 4 1 17 5 30 10 13 5 28 9 34 9 15 0 105 29 168 55 30 13 75 28 100 35 25 6
74 20 110 30 36 10 99 27 140 38 41 12 98 30 125 41 28 11 113 38 190 62 184
55 314 98 346 115 15 7 46 16 70 20 37 6 178 52 254 84 39 16 216 70 230 70
13 0 41 11 120 45 17 8 68 23 115 35 47 11 108 29 136 40 28 10 69 21 91 25
22 3 59 9 84 13 l44 7 -39 19 c-52 24 -361 52 -392 35 -12 -6 -27 -8 -33 -5
-6 4 -11 2 -11 -3 0 -6 -9 -11 -21 -11 -13 0 -18 4 -13 12 5 8 0 9 -17 5 -13
-4 -30 -7 -37 -7 -7 0 -10 -6 -7 -12 4 -7 0 -4 -9 6 -13 16 -16 17 -21 4 -5
-12 -16 -15 -45 -11 -36 5 -39 4 -35 -16 2 -13 -3 -25 -15 -31 -28 -15 -33
-12 -28 18 4 26 2 28 -24 24 -15 -2 -25 -8 -22 -13 3 -5 10 -7 15 -4 5 4 8 -5
7 -19 -1 -13 -6 -22 -11 -19 -4 3 -6 7 -3 10 8 9 -34 43 -54 43 -12 0 -20 7
-20 17 0 15 -2 14 -19 -3 -10 -10 -17 -22 -15 -26 3 -4 0 -9 -6 -13 -5 -3 -10
2 -10 11 0 14 -3 15 -12 6 -15 -15 -28 -15 -28 -1 0 5 4 8 9 5 5 -3 12 1 15
10 3 9 13 14 21 10 8 -3 17 -1 20 5 4 5 -2 12 -12 16 -10 4 -21 11 -26 17 -4
6 -6 0 -5 -14 2 -19 -2 -25 -17 -25 -11 0 -19 5 -18 12 1 6 -4 17 -12 23 -13
11 -15 9 -12 -9 2 -13 9 -26 16 -31 9 -5 2 -9 -18 -12 -17 -2 -31 -1 -31 4 0
5 -4 6 -10 3 -5 -3 -19 -1 -30 5 -13 7 -20 7 -20 0 0 -5 5 -10 10 -10 6 0 10
-5 10 -11 0 -6 -9 -9 -20 -6 -24 6 -26 -5 -5 -23 13 -11 13 -15 3 -22 -9 -7
-6 -8 10 -5 12 3 22 1 22 -3 0 -15 41 -23 53 -11 9 9 8 14 -3 21 -13 8 -13 10
1 10 9 0 20 7 23 16 4 9 11 12 18 7 7 -4 18 -8 24 -9 18 -3 54 -37 54 -52 0
-8 -6 -12 -12 -9 -7 2 -19 -3 -26 -12 -8 -9 -11 -11 -8 -5 7 14 -42 25 -50 12
-4 -5 -17 -7 -30 -4 -14 4 -24 2 -24 -4 0 -5 -5 -10 -11 -10 -8 0 -8 5 1 15
21 25 -5 17 -29 -9 -12 -13 -30 -23 -39 -21 -9 2 -21 4 -25 4 -5 1 -5 7 -1 14
5 7 0 6 -11 -3 -16 -13 -18 -13 -13 0 2 8 22 20 44 27 21 6 33 12 26 12 -9 1
-11 8 -7 21 3 11 2 20 -3 20 -14 0 -35 -28 -28 -38 3 -5 -1 -9 -8 -9 -17 0 -9
27 12 44 9 7 12 14 6 15 -5 0 -13 2 -19 3 -5 2 -15 3 -22 4 -6 0 -14 9 -16 19
-4 13 -5 11 -6 -5 0 -13 4 -23 10 -23 8 0 8 -4 -1 -15 -6 -8 -10 -18 -7 -22 3
-4 -2 -14 -10 -22 -13 -12 -15 -12 -11 0 6 18 -13 38 -30 31 -11 -4 -11 -6 0
-13 10 -7 9 -9 -4 -9 -10 0 -18 5 -18 10 0 6 -4 10 -9 10 -5 0 -7 -9 -4 -20 3
-11 12 -20 21 -20 8 0 12 -3 9 -6 -3 -4 -1 -16 4 -27 9 -16 13 -17 20 -6 7 11
9 11 9 -3 0 -28 -22 -33 -42 -8 -18 22 -18 22 -18 1 0 -12 -4 -21 -10 -21 -5
0 -10 5 -10 11 0 8 -4 8 -13 1 -10 -8 -16 -5 -27 11 -12 20 -12 21 4 8 9 -8
20 -10 24 -6 4 4 2 10 -4 12 -25 9 -47 31 -49 49 -8 72 -17 92 -46 96 -18 3
-28 1 -26 -6 2 -6 15 -10 28 -8 19 2 21 1 9 -7 -8 -6 -10 -11 -5 -11 6 0 11
-10 12 -23 1 -12 4 -30 5 -39 2 -9 -1 -16 -5 -15 -5 1 -15 -10 -23 -25 -19
-36 -33 -35 -47 2 -13 35 -29 43 -62 30 -26 -10 -32 -24 -15 -35 6 -4 9 -3 8
2 -3 9 5 13 28 13 10 0 13 -6 10 -18 -5 -15 2 -22 34 -35 38 -15 40 -17 40
-60 0 -32 -4 -44 -15 -44 -11 0 -13 6 -9 20 5 15 3 17 -7 11 -8 -5 -21 -9 -29
-10 -8 0 -22 -3 -30 -7 -8 -3 -53 -15 -99 -26 -47 -12 -103 -29 -125 -40 -23
-10 -53 -22 -68 -25 -15 -3 -33 -12 -40 -19 -15 -13 -27 -17 -73 -21 -16 -2
-51 -14 -78 -26 -26 -12 -60 -23 -75 -25 -37 -3 -144 -35 -159 -47 -7 -6 -13
-7 -13 -4 0 4 -9 2 -20 -4 -11 -6 -20 -17 -20 -24 0 -10 -10 -13 -35 -11 -34
3 -73 -6 -130 -31 -94 -40 -129 -54 -140 -54 -8 0 -16 -6 -18 -12 -4 -10 -6
-9 -6 1 -1 11 -4 11 -16 1 -9 -7 -32 -15 -53 -17 -20 -2 -60 -15 -88 -28 -28
-14 -58 -25 -66 -25 -9 0 -20 -6 -26 -13 -6 -7 -25 -14 -43 -15 -18 -1 -47
-11 -64 -22 -36 -22 -50 -25 -40 -10 3 6 1 10 -4 10 -6 0 -11 -4 -11 -10 0 -5
-8 -10 -17 -10 -15 0 -15 -1 2 -13 11 -9 14 -16 7 -21 -6 -3 -13 -2 -17 4 -3
5 -17 10 -31 10 -14 0 -23 -4 -20 -9 4 -5 -2 -8 -11 -6 -10 1 -24 -2 -30 -8
-9 -6 -13 -6 -13 2 0 6 -5 11 -12 11 -6 0 -9 -3 -5 -6 8 -8 -13 -64 -25 -64
-6 0 -7 7 -4 16 8 20 -2 36 -16 28 -6 -4 -5 -10 3 -15 11 -7 11 -9 1 -9 -17 0
-43 26 -35 34 4 3 1 6 -5 6 -7 0 -12 -6 -12 -14 0 -8 -6 -16 -12 -19 -10 -3
-10 -10 1 -28 13 -21 12 -23 -1 -12 -8 7 -17 10 -21 7 -9 -10 -47 16 -47 32 0
8 -4 13 -9 10 -5 -4 -11 -1 -13 5 -3 8 -94 16 -273 26 -609 31 -669 36 -673
56 -2 10 3 17 12 17 9 0 16 6 16 14 0 14 60 31 94 27 14 -2 17 1 12 16 -6 14
-5 16 5 6 17 -17 48 -16 55 0 3 8 15 13 27 12 12 -1 27 1 32 5 6 4 25 11 44
15 19 4 48 15 65 25 17 9 69 27 116 39 47 12 97 27 112 33 15 6 35 7 44 4 32
-12 -6 -34 -139 -76 -73 -23 -188 -60 -257 -82 -69 -22 -129 -45 -135 -50 -10
-9 83 -2 115 9 8 3 33 7 55 9 22 2 51 7 63 10 13 3 55 7 93 9 39 3 111 12 162
21 51 8 106 17 122 20 17 2 62 10 100 16 39 7 102 13 140 13 79 2 186 11 227
20 16 3 40 7 55 9 59 8 109 19 120 28 6 5 37 11 68 13 32 2 73 9 92 16 18 6
40 8 48 5 8 -3 15 -2 15 2 0 4 8 8 18 9 9 1 51 5 92 8 41 4 80 12 85 18 6 7
21 14 35 15 14 2 27 8 28 13 2 5 7 7 12 4 5 -3 14 1 22 8 7 7 21 16 31 20 9 3
17 13 17 21 0 7 8 17 18 21 16 6 16 7 -1 20 -17 12 -17 14 -2 22 15 9 15 11 0
23 -14 12 -14 15 5 35 16 18 19 27 11 47 -5 14 -7 40 -5 60 7 49 -12 63 -62
44 -22 -8 -79 -27 -129 -42 -49 -15 -97 -31 -105 -34 -8 -4 -76 -26 -150 -49
-74 -23 -145 -47 -157 -53 -30 -15 -43 -3 -43 38 0 32 1 34 16 20 20 -21 42
-20 106 3 29 11 86 29 126 41 39 11 72 25 72 30 0 4 8 7 18 6 9 -2 27 4 40 12
12 8 22 11 22 7 0 -3 7 1 16 9 8 9 23 16 32 17 42 2 80 12 119 30 23 11 47 18
52 15 5 -4 13 -2 16 4 5 8 15 6 31 -4 31 -21 96 -22 88 -1 -4 8 -13 15 -20 15
-8 0 -17 7 -20 15 -5 13 -8 13 -21 0 -19 -20 -29 -19 -38 3 -9 21 -24 262 -25
397 0 65 -4 95 -9 85 -6 -8 -7 -18 -4 -24 4 -5 -1 -7 -10 -3 -11 4 -17 1 -17
-9 0 -8 -4 -12 -10 -9 -5 3 -10 3 -11 -2 -1 -17 -8 -45 -13 -59 -6 -16 -26
-19 -26 -3 0 5 5 7 10 4 6 -3 10 1 10 10 0 9 -4 13 -10 10 -5 -3 -10 -1 -10 6
0 6 -8 9 -20 6 -10 -3 -21 0 -23 7 -2 6 -9 0 -16 -13 -8 -14 -9 -21 -2 -17 6
4 11 3 11 -2 0 -11 -40 -23 -52 -16 -4 3 -8 11 -8 19 0 8 -7 11 -18 9 -12 -4
-17 -16 -18 -39 0 -22 3 -32 10 -28 6 4 5 -1 -3 -10 -12 -15 -11 -17 3 -17 9
0 16 5 16 11 0 7 9 9 22 6 12 -3 30 -2 40 4 12 6 18 6 18 -1 0 -5 -5 -10 -11
-10 -6 0 -17 -7 -25 -15 -9 -8 -11 -15 -5 -15 6 0 11 -4 11 -10 0 -15 -28 0
-33 18 -4 15 -5 14 -6 -1 0 -10 -7 -17 -13 -14 -7 2 -24 0 -38 -5 -13 -5 -21
-6 -17 -2 3 4 -3 16 -16 27 -16 15 -18 19 -4 14 18 -7 22 8 11 38 -5 13 -8 14
-15 3 -7 -10 -9 -9 -9 5 0 15 -3 14 -22 -5 -13 -13 -22 -27 -20 -31 1 -4 -11
-1 -27 8 -28 14 -55 5 -31 -10 7 -4 1 -16 -15 -31 -15 -14 -25 -30 -22 -37 3
-7 -11 -23 -29 -35 -19 -12 -34 -19 -33 -15 3 19 -2 31 -15 36 -10 4 -12 0 -9
-14 7 -24 -5 -25 -24 -1 -8 9 -12 11 -8 5 3 -7 2 -13 -3 -13 -10 0 -55 50 -44
50 4 0 0 6 -9 13 -15 11 -18 99 -28 867 -6 470 -13 943 -16 1050 -3 107 -7
474 -11 815 -6 702 -15 917 -44 1068 -39 202 -107 365 -181 432 -31 28 -47 35
-80 35 -117 0 -192 -100 -265 -353 -42 -146 -70 -301 -84 -467 -10 -117 -8
-642 5 -1230 3 -118 7 -519 10 -890 5 -609 9 -740 19 -740 2 0 23 7 47 15 77
28 307 95 323 95 9 0 23 -11 32 -25 13 -20 16 -51 16 -154 0 -72 -3 -139 -7
-150 -8 -27 -84 -62 -261 -120 -80 -27 -147 -51 -150 -54 -3 -2 -5 -106 -5
-231 0 -124 -4 -228 -9 -231 -5 -3 -15 7 -23 22 l-14 27 -8 -23 c-5 -16 -12
-21 -26 -18 -10 3 -17 1 -13 -4 5 -8 -10 -13 -30 -10 -5 1 -6 -5 -3 -13 4 -9
2 -18 -4 -21 -5 -4 -7 -11 -4 -16 4 -5 -1 -9 -9 -9 -19 0 -22 -20 -3 -20 7 0
6 -4 -4 -10 -23 -14 -59 -1 -52 18 4 15 3 15 -10 0 -8 -10 -18 -14 -22 -10 -5
4 -5 2 -1 -5 4 -7 -3 -22 -14 -33 -21 -21 -35 -20 -35 2 0 19 -56 15 -69 -4
-12 -17 -14 -17 -42 4 -15 13 -24 16 -19 9 6 -11 4 -13 -8 -8 -11 4 -18 -1
-23 -16 -5 -12 -7 -25 -6 -29 2 -8 -13 -12 -37 -9 -7 2 -10 -2 -6 -8 3 -6 1
-11 -5 -11 -6 0 -8 -4 -5 -10 3 -6 2 -10 -4 -10 -5 0 -12 6 -14 13 -3 7 -6 5
-6 -5 -1 -20 -12 -23 -27 -8 -7 7 -16 5 -29 -4 -17 -12 -17 -16 -6 -30 8 -9
12 -19 9 -21 -8 -9 -38 6 -32 16 3 5 -2 9 -10 9 -14 0 -16 25 -16 198 -1 108
-3 220 -5 247 -5 68 -20 942 -30 1780 -3 231 -10 746 -16 1144 -6 398 -14 976
-17 1286 -8 609 -7 599 -61 593 -26 -3 -26 -3 -29 77 -2 74 13 212 38 330 11
52 47 100 88 116 13 5 20 14 17 20 -4 6 2 20 13 32 11 12 39 69 63 126 24 58
67 144 96 193 53 88 59 114 21 105 -18 -5 -18 -4 -5 16 33 52 148 95 964 361
164 53 177 56 275 56 92 0 110 -3 157 -26 64 -32 125 -105 182 -219 44 -88 55
-103 46 -65 -4 14 -7 200 -7 413 -1 213 -5 387 -8 387 -4 0 -164 -51 -357
-114 -192 -63 -532 -174 -755 -246 -223 -73 -535 -175 -695 -227 -552 -180
-572 -186 -744 -207 -247 -31 -387 -39 -696 -39 -575 -1 -976 41 -1108 116
-59 33 -71 64 -75 201 -5 151 4 187 60 220 l41 25 27 -29 c14 -15 44 -33 66
-39 149 -43 612 -81 979 -81 181 0 568 21 660 35 17 2 62 7 100 10 96 9 201
30 304 60 158 48 863 274 1416 455 132 43 339 111 460 150 121 39 240 79 265
88 l45 18 -1 134 c-1 290 -8 679 -14 750 -4 67 -6 73 -18 53z m-2535 -895 c-3
-8 -6 -5 -6 6 -1 11 2 17 5 13 3 -3 4 -12 1 -19z m138 -127 c3 -5 2 -12 -3
-15 -5 -3 -9 1 -9 9 0 17 3 19 12 6z m-45 -321 c0 -5 -8 -10 -17 -10 -15 0
-16 2 -3 10 19 12 20 12 20 0z m-3909 -263 c-13 -13 -285 -96 -370 -113 -99
-19 -410 -45 -441 -37 -19 5 78 41 390 144 l415 136 8 -60 c5 -35 4 -64 -2
-70z m-588 -224 c-7 -2 -19 -2 -25 0 -7 3 -2 5 12 5 14 0 19 -2 13 -5z m1323
-1210 c196 -96 411 -508 539 -1032 108 -444 153 -879 142 -1386 -14 -615 -112
-1160 -283 -1564 -120 -282 -224 -404 -389 -458 l-85 -27 -58 19 c-93 31 -198
148 -280 312 -213 424 -342 1196 -342 2043 0 764 99 1392 280 1777 85 180 165
268 289 319 74 31 120 30 187 -3z m-2732 -3705 c3 -343 9 -669 12 -726 7 -120
1 -134 -55 -127 -20 2 -103 7 -186 10 -299 10 -410 17 -419 25 -9 9 199 484
218 499 6 4 34 16 61 26 63 22 84 41 78 66 -5 18 -23 27 -23 11 0 -9 -45 -10
-55 -1 -3 4 -1 10 6 15 8 5 10 3 4 -6 -6 -9 -2 -10 16 -5 32 10 31 9 31 50 0
43 -1 44 -36 51 -18 3 -26 0 -26 -10 0 -16 -27 -29 -35 -16 -3 5 -31 7 -63 6
-54 -2 -82 -10 -160 -42 -18 -8 -46 -14 -62 -14 -16 0 -44 -6 -62 -14 -18 -7
-78 -24 -133 -36 -55 -12 -118 -28 -140 -35 -22 -7 -74 -15 -115 -18 -71 -5
-73 -5 -40 8 55 22 269 96 580 200 157 53 295 103 307 111 13 8 30 31 38 52
59 139 241 542 246 542 3 0 9 -280 13 -622z m4267 -1001 c419 -98 1575 -89
1962 15 l79 21 21 -22 c20 -19 22 -34 25 -152 2 -72 1 -142 -2 -154 -4 -17
-25 -33 -71 -54 -200 -95 -549 -133 -1150 -126 -540 7 -880 42 -1011 105 -65
32 -77 61 -81 210 -5 143 7 180 66 211 34 18 34 18 61 -9 19 -20 49 -33 101
-45z m4269 -134 c0 -16 -6 -23 -17 -22 -11 0 -13 3 -5 6 15 6 16 43 1 43 -5 0
-7 5 -3 11 9 15 24 -9 24 -38z m-100 3 c0 -3 -4 -8 -10 -11 -5 -3 -10 -1 -10
4 0 6 5 11 10 11 6 0 10 -2 10 -4z m-105 -36 c3 -5 1 -10 -4 -10 -6 0 -11 5
-11 10 0 6 2 10 4 10 3 0 8 -4 11 -10z m-98 -26 c-3 -3 -12 -4 -19 -1 -8 3 -5
6 6 6 11 1 17 -2 13 -5z m-262 -134 c3 -5 -1 -10 -10 -10 -9 0 -14 -4 -10 -9
3 -6 -3 -9 -14 -8 -19 1 -19 2 -3 18 20 21 29 23 37 9z m5 -55 c7 -8 9 -15 6
-15 -4 0 -14 7 -22 15 -9 8 -11 15 -6 15 5 0 15 -7 22 -15z m47 -47 c-3 -8 -6
-5 -6 6 -1 11 2 17 5 13 3 -3 4 -12 1 -19z m318 12 c3 -5 1 -10 -4 -10 -6 0
-11 5 -11 10 0 6 2 10 4 10 3 0 8 -4 11 -10z m-290 -20 c3 -5 1 -10 -4 -10 -6
0 -11 5 -11 10 0 6 2 10 4 10 3 0 8 -4 11 -10z m-25 -19 c8 -1 2 -8 -15 -17
-16 -8 -32 -20 -36 -26 -4 -7 -9 -7 -13 1 -4 6 -2 11 5 11 6 0 9 8 7 18 -4 14
0 18 16 16 12 -1 28 -3 36 -3z m2070 -51 c0 -5 -4 -10 -9 -10 -6 0 -13 5 -16
10 -3 6 1 10 9 10 9 0 16 -4 16 -10z m-35 -28 c-3 -3 -11 0 -18 7 -9 10 -8 11
6 5 10 -3 15 -9 12 -12z m-13505 -36 c0 -3 -4 -8 -10 -11 -5 -3 -10 -1 -10 4
0 6 5 11 10 11 6 0 10 -2 10 -4z m10688 -68 l-2 -73 -3 68 c-2 37 -8 67 -14
67 -5 0 -7 -11 -5 -24 2 -14 -1 -29 -8 -35 -10 -8 -11 -4 -8 19 3 19 0 30 -7
30 -7 0 -9 -5 -5 -12 4 -7 3 -8 -5 -4 -18 12 6 36 35 36 23 0 24 -2 22 -72z
m902 62 c0 -5 -2 -10 -4 -10 -3 0 -8 5 -11 10 -3 6 -1 10 4 10 6 0 11 -4 11
-10z m1590 -50 c0 -5 -5 -10 -11 -10 -5 0 -7 5 -4 10 3 6 8 10 11 10 2 0 4 -4
4 -10z m-2714 -32 c4 -7 3 -8 -4 -4 -7 4 -12 1 -12 -8 0 -9 -7 -16 -15 -16
-18 0 -19 6 -2 25 15 18 24 18 33 3z m-126 -12 c0 -2 -7 -7 -16 -10 -8 -3 -12
-2 -9 4 6 10 25 14 25 6z m57 -92 c-3 -3 -12 -4 -19 -1 -8 3 -5 6 6 6 11 1 17
-2 13 -5z m89 -29 c3 -17 -12 -20 -21 -5 -3 6 -1 10 5 10 6 0 8 6 4 13 -4 6
-3 8 1 4 5 -4 10 -14 11 -22z m-397 -22 c-3 -20 2 -26 11 -13 7 11 10 11 10 2
0 -7 5 -10 12 -6 7 4 8 3 4 -4 -11 -18 3 -35 18 -23 9 8 11 2 8 -25 -5 -42
-29 -58 -57 -38 -15 11 -21 11 -27 1 -5 -7 -7 3 -6 26 1 21 6 41 11 44 5 3 3
9 -4 14 -12 8 -11 11 1 19 18 12 20 12 19 3z m101 -3 c0 -5 -4 -10 -9 -10 -5
0 -18 -3 -28 -6 -16 -6 -16 -5 2 9 23 19 35 21 35 7z m390 0 c0 -5 -5 -10 -11
-10 -5 0 -7 5 -4 10 3 6 8 10 11 10 2 0 4 -4 4 -10z m57 -6 c-3 -3 -12 -4 -19
-1 -8 3 -5 6 6 6 11 1 17 -2 13 -5z m-327 -120 c0 -3 -7 -1 -15 6 -8 7 -15 17
-15 22 0 5 7 3 15 -6 8 -8 15 -18 15 -22z m37 0 c-3 -3 -12 -4 -19 -1 -8 3 -5
6 6 6 11 1 17 -2 13 -5z m-267 -34 c0 -5 -4 -10 -10 -10 -5 0 -10 5 -10 10 0
6 5 10 10 10 6 0 10 -4 10 -10z m273 -31 c-6 -23 -29 -25 -37 -3 -10 27 -7 31
18 27 17 -4 22 -10 19 -24z m-269 -5 c3 -8 2 -12 -4 -9 -6 3 -10 10 -10 16 0
14 7 11 14 -7z m134 -11 c10 -10 10 -17 1 -35 l-12 -22 -19 24 c-12 15 -16 26
-9 28 6 2 9 8 5 13 -8 13 18 7 34 -8z m-132 -32 c0 -11 -4 -17 -8 -15 -4 3 -8
12 -8 20 0 8 4 14 8 14 4 0 8 -9 8 -19z"/>
<path d="M13965 7270 c3 -5 11 -10 16 -10 6 0 7 5 4 10 -3 6 -11 10 -16 10 -6
0 -7 -4 -4 -10z"/>
<path d="M12967 15043 c-10 -16 11 -39 23 -27 8 8 7 14 -4 23 -8 7 -17 8 -19
4z"/>
<path d="M10653 14553 c15 -2 39 -2 55 0 15 2 2 4 -28 4 -30 0 -43 -2 -27 -4z"/>
<path d="M2950 8716 c0 -2 8 -10 18 -17 15 -13 16 -12 3 4 -13 16 -21 21 -21
13z"/>
<path d="M15804 8095 c-9 -21 -2 -26 13 -10 8 9 9 16 3 20 -6 3 -13 -1 -16
-10z"/>
<path d="M15424 8008 c12 -7 21 -7 28 0 6 6 0 10 -18 10 -23 0 -24 -2 -10 -10z"/>
<path d="M15611 7944 c0 -11 3 -14 6 -6 3 7 2 16 -1 19 -3 4 -6 -2 -5 -13z"/>
<path d="M16267 7756 c-8 -8 -17 -13 -20 -10 -2 3 -7 -2 -11 -11 -3 -9 -2 -13
4 -10 6 3 10 0 10 -8 0 -8 7 -17 15 -21 8 -3 15 -12 15 -21 0 -8 8 -15 18 -14
10 0 12 3 4 6 -6 2 -10 9 -6 14 3 5 1 9 -5 9 -6 0 -7 8 -4 17 5 12 2 15 -10
10 -22 -8 -22 1 0 25 20 22 11 35 -10 14z"/>
<path d="M17518 7753 c7 -3 16 -2 19 1 4 3 -2 6 -13 5 -11 0 -14 -3 -6 -6z"/>
<path d="M17623 7743 c9 -2 25 -2 35 0 9 3 1 5 -18 5 -19 0 -27 -2 -17 -5z"/>
<path d="M15967 7725 c-13 -9 -16 -20 -11 -39 5 -22 8 -24 21 -11 18 19 29 20
14 1 -9 -11 -7 -13 11 -12 13 1 22 7 20 15 -1 7 2 9 8 6 6 -4 9 -13 6 -21 -3
-8 0 -11 10 -7 10 4 12 9 4 18 -5 6 -7 15 -3 18 3 4 1 7 -6 7 -8 0 -11 8 -9
18 6 22 -38 27 -65 7z"/>
<path d="M2880 7720 c-8 -5 -12 -11 -9 -14 3 -3 14 1 25 9 21 16 8 20 -16 5z"/>
<path d="M16121 7693 c7 -12 15 -20 18 -17 3 2 -3 12 -13 22 -17 16 -18 16 -5
-5z"/>
<path d="M16156 7653 c-6 -14 -5 -15 5 -6 7 7 10 15 7 18 -3 3 -9 -2 -12 -12z"/>
<path d="M16064 7649 c-4 -8 -3 -9 4 -5 7 4 12 1 12 -8 0 -17 -34 -39 -44 -29
-3 3 -6 1 -6 -5 0 -8 20 -12 54 -12 52 0 78 11 56 25 -5 3 -10 1 -10 -5 0 -6
-5 -8 -10 -5 -6 4 -7 12 -3 18 4 7 0 6 -10 -2 -15 -12 -17 -11 -17 7 0 25 -16
37 -26 21z"/>
<path d="M16301 7634 c0 -11 3 -14 6 -6 3 7 2 16 -1 19 -3 4 -6 -2 -5 -13z"/>
<path d="M16308 7618 c-36 -36 -40 -35 235 -53 31 -2 57 1 57 6 0 8 -78 14
-143 9 -28 -2 -87 20 -87 31 0 4 -7 10 -16 13 -12 4 -15 2 -10 -9 3 -8 3 -15
0 -15 -2 0 -8 8 -12 18 -7 17 -8 17 -24 0z"/>
<path d="M16600 7626 c0 -2 7 -7 16 -10 8 -3 12 -2 9 4 -6 10 -25 14 -25 6z"/>
<path d="M16266 7601 c-4 -7 -5 -15 -2 -18 9 -9 19 4 14 18 -4 11 -6 11 -12 0z"/>
<path d="M16616 7585 c-3 -9 0 -15 9 -15 16 0 20 16 6 24 -5 3 -11 -1 -15 -9z"/>
<path d="M16812 7580 c0 -14 2 -19 5 -12 2 6 2 18 0 25 -3 6 -5 1 -5 -13z"/>
<path d="M13950 7550 c0 -17 2 -19 14 -8 14 13 12 28 -5 28 -5 0 -9 -9 -9 -20z"/>
</g>
</svg>
